# xmcd CD database file
#
# Track frame offsets:
#	150
#	16533
#	36033
#	61683
#	87573
#	111543
#	136467
#	160392
#	181723
#	205805
#	229898
#	251935
#	272000
#	299851
#
# Disc length: 4286 seconds
#
# Revision: 5
# Processed by: cddbd v1.5.2PL0 Copyright (c) Steve Scherf et al.
# Submitted via: CDex 1.70beta3
#
DISCID=cd10bc0e
DTITLE=ジミーサムP - Toy Box
DYEAR=2009
DGENRE=Vocaloid
TTITLE0=ジミーサムP feat.初音ミク×巡音ルカ×寒音ジミ - BEAT!
TTITLE1=ジミーサムP feat.初音ミク - Scene
TTITLE2=ジミーサムP feat.初音ミク - Eve
TTITLE3=ジミーサムP feat.初音ミク - Adam
TTITLE4=ジミーサムP feat.初音ミク - Escape
TTITLE5=ジミーサムP feat.初音ミク - Fake Lover
TTITLE6=ジミーサムP feat.初音ミク - SoundScaper
TTITLE7=ジミーサムP feat.巡音ルカ - Dark to Light
TTITLE8=ジミーサムP feat.初音ミク - The 9th
TTITLE9=ジミーサムP feat.巡音ルカ - Toy Box
TTITLE10=ジミーサムP feat.初音ミク - Luminous Point
TTITLE11=ジミーサムP feat.初音ミク - Message in our silence
TTITLE12=ジミーサムP feat.初音ミク - from Y to Y
TTITLE13=ジミーサムP feat.初音ミク - Little Traveler
EXTD=YEAR: 2009
EXTT0=
EXTT1=
EXTT2=
EXTT3=
EXTT4=
EXTT5=
EXTT6=
EXTT7=
EXTT8=
EXTT9=
EXTT10=
EXTT11=
EXTT12=
EXTT13=
PLAYORDER=
